<?xml version="1.0" encoding="utf-8"?>
<!-- Generator: Adobe Illustrator 19.1.1, SVG Export Plug-In . SVG Version: 6.00 Build 0)  -->
<svg version="1.1" id="Layer_1" xmlns="http://www.w3.org/2000/svg" xmlns:xlink="http://www.w3.org/1999/xlink" x="0px" y="0px"
	 viewBox="0 0 85 85" style="enable-background:new 0 0 85 85;" xml:space="preserve">
<style type="text/css">
	.st0{fill:#231F20;}
	.st1{fill:#FFFFFF;}
	.st2{fill:none;stroke:#231F20;stroke-width:4.5;stroke-linecap:round;stroke-linejoin:round;stroke-miterlimit:10;}
	.st3{fill:#FFFFFF;stroke:#FFFFFF;stroke-width:8;stroke-miterlimit:10;}
	.st4{fill:#FFFFFF;stroke:#231F20;stroke-width:4.5;stroke-linecap:round;stroke-linejoin:round;stroke-miterlimit:10;}
	.st5{fill:none;stroke:#231F20;stroke-width:5;stroke-linecap:round;stroke-linejoin:round;stroke-miterlimit:10;}
	.st6{fill:none;stroke:#231F20;stroke-width:4.5;stroke-linejoin:round;stroke-miterlimit:10;}
	.st7{fill:none;stroke:#231F20;stroke-width:5;stroke-miterlimit:10;}
	.st8{fill:#FFFFFF;stroke:#FFFFFF;stroke-width:10;stroke-miterlimit:10;}
	.st9{fill:none;stroke:#231F20;stroke-width:6;stroke-linejoin:round;stroke-miterlimit:10;}
	.st10{fill:none;stroke:#231F20;stroke-width:3;stroke-linejoin:round;}
	.st11{fill:none;stroke:#231F20;stroke-width:3;stroke-linejoin:round;stroke-dasharray:9,9;}
	.st12{fill:none;stroke:#231F20;stroke-linecap:round;stroke-linejoin:round;stroke-miterlimit:10;}
	.st13{fill:none;stroke:#221F1F;stroke-width:4.5;stroke-linecap:round;stroke-linejoin:round;stroke-miterlimit:10;}
	.st14{fill:none;stroke:#221F1F;stroke-width:4.5;stroke-linejoin:round;stroke-miterlimit:10;}
	.st15{fill:none;stroke:#221F1F;stroke-width:3;stroke-linejoin:round;}
	.st16{fill:none;stroke:#221F1F;stroke-width:3;stroke-linejoin:round;stroke-dasharray:9,9;}
	.st17{fill:none;}
	.st18{fill:#FFFFFF;stroke:#231F20;stroke-width:4.5;stroke-linejoin:round;stroke-miterlimit:10;}
	.st19{fill:#FFFFFF;stroke:#231F20;stroke-width:4;stroke-linejoin:round;stroke-miterlimit:10;}
	.st20{fill:none;stroke:#231F20;stroke-width:4;stroke-linecap:round;stroke-linejoin:round;stroke-miterlimit:10;}
	.st21{fill:#EC1C24;}
	.st22{fill:none;stroke:#231F20;stroke-width:4;stroke-linejoin:round;stroke-miterlimit:10;}
	.st23{fill:none;stroke:#231F20;stroke-width:4;stroke-miterlimit:10;}
	.st24{fill:#221F1F;}
	.st25{fill:#231F20;stroke:#221F1F;stroke-linecap:round;stroke-linejoin:round;stroke-miterlimit:10;}
</style>
<g id="user-1_2_">
	<path class="st0" d="M42.5,2.5c-22.1,0-40,17.9-40,40c0,10.8,4.2,20.9,11.9,28.5c7.5,7.4,17.5,11.5,28.1,11.5
		c10.5,0,20.5-4.1,28-11.5c7.7-7.6,12-17.7,12-28.5C82.5,20.4,64.6,2.5,42.5,2.5z M68.7,68.9c-0.8-1.2-1.9-3.1-2.5-5.1
		c-1-3.2-3.9-4.9-3.9-4.9s-8.6-2.2-11.5-3.5c-1.4-0.7-2.3-2.2-2.7-3.6c4.6-2.7,7.7-8.8,7.7-16.6c0-10.8-6-13.7-13.4-13.7
		c-7.4,0-13.4,2.9-13.4,13.7c0,7.8,3.1,13.9,7.7,16.6c-0.5,1.4-1.3,3-2.7,3.6c-2.9,1.3-11.5,3.5-11.5,3.5s-2.9,1.7-3.9,4.9
		c-0.6,2.1-1.7,3.9-2.4,5.1c-7-7-10.9-16.4-10.9-26.3C5.3,22,22,5.3,42.5,5.3C63,5.3,79.7,22,79.7,42.5
		C79.7,52.5,75.8,61.8,68.7,68.9z"/>
</g>
</svg>
